<?xml version="1.0" encoding="utf-8" standalone="no"?><!DOCTYPE svg PUBLIC "-//W3C//DTD SVG 20010904//EN" "http://www.w3.org/TR/2001/REC-SVG-20010904/DTD/svg10.dtd"><svg xmlns="http://www.w3.org/2000/svg" width="1261" height="879" xmlns:xlink="http://www.w3.org/1999/xlink"><source><![CDATA[Title: Forge Webhooks
participant File/Folder
participant Webhooks
participant YourCallbackServer
participant YourApplication

Note right of YourApplication: Event: Identify event you\nare interested in 
Note right of YourApplication: Scope: Identify folder/project\nthat you want to monitor
Note right of YourCallbackServer: Callback: Setup a callback url\nthat can receive events 

YourApplication->>Webhooks: Create a Hook
Webhooks-->YourApplication: Hooks created successfully
File/Folder-->>Webhooks: File modified
Webhooks->>YourCallbackServer: Event dm.version.modified
YourCallbackServer-->Webhooks: Returns 200 status code\n within 6 seconds (acknowledgement)
File/Folder-->>Webhooks: File deleted
Webhooks->>YourCallbackServer: Even dm.version.deleted
YourCallbackServer-->Webhooks: Returns 200 status code
File/Folder-->>Webhooks: Folder deleted
Webhooks->>YourCallbackServer: Even dm.folder.deleted
YourCallbackServer-->Webhooks: Returns 200 status code]]></source><desc>Forge Webhooks</desc><defs><marker viewBox="0 0 5 5" markerWidth="5" markerHeight="5" orient="auto" refX="5" refY="2.5" id="markerArrowBlock"><path d="M 0 0 L 5 2.5 L 0 5 z"></path></marker><marker viewBox="0 0 9.6 16" markerWidth="4" markerHeight="16" orient="auto" refX="9.6" refY="8" id="markerArrowOpen"><path d="M 9.6,8 1.92,16 0,13.7 5.76,8 0,2.286 1.92,0 9.6,8 z"></path></marker></defs><g class="title"><path d="M10,10C103.2,4.1 111.3,15.9 156.9,10.0C158.2,26.9 155.6,23.4 156.9,42.5C60.2,36.6 121.6,48.4 10.0,42.5C11.3,34.7 8.7,37.3 10.0,10.0" stroke="#000000" fill="#ffffff" style="stroke-width: 2;"></path><text x="15" y="29" style="font-size: 16px; font-family: danielbd;"><tspan x="15">Forge Webhooks</tspan></text></g><g class="actor"><path d="M10,52.5C28.3,47.9 106.2,57.1 124.6,52.5C122.9,78.3 126.3,67.1 124.6,95.0C28.3,99.6 99.3,90.4 10.0,95.0C8.3,70.7 11.7,84.8 10.0,52.5" stroke="#000000" fill="#ffffff" style="stroke-width: 2;"></path><text x="20" y="76.5" style="font-size: 16px; font-family: danielbd;"><tspan x="20">File/Folder</tspan></text></g><g class="actor"><path d="M10,816.75C65.5,821.3 37.5,812.2 124.6,816.8C122.9,843.2 126.3,849.0 124.6,859.3C100.4,854.7 28.3,863.8 10.0,859.3C8.3,829.0 11.7,833.9 10.0,816.8" stroke="#000000" fill="#ffffff" style="stroke-width: 2;"></path><text x="20" y="840.75" style="font-size: 16px; font-family: danielbd;"><tspan x="20">File/Folder</tspan></text></g><path d="M67.3,95.0C38.4,436.0 96.2,701.3 67.3,816.8" stroke="#000000" fill="none" style="stroke-width: 2;"></path><g class="actor"><path d="M160.3515625,52.5C215.1,48.4 210.5,56.6 262.3,52.5C264.0,79.7 260.6,72.4 262.3,95.0C184.8,99.1 229.4,90.9 160.4,95.0C158.7,59.3 162.1,87.7 160.4,52.5" stroke="#000000" fill="#ffffff" style="stroke-width: 2;"></path><text x="170.3515625" y="76.5" style="font-size: 16px; font-family: danielbd;"><tspan x="170.3515625">Webhooks</tspan></text></g><g class="actor"><path d="M160.3515625,816.75C214.1,812.7 189.7,820.8 262.3,816.8C264.0,851.1 260.6,841.1 262.3,859.3C211.6,863.3 220.3,855.2 160.4,859.3C158.7,827.2 162.1,852.5 160.4,816.8" stroke="#000000" fill="#ffffff" style="stroke-width: 2;"></path><text x="170.3515625" y="840.75" style="font-size: 16px; font-family: danielbd;"><tspan x="170.3515625">Webhooks</tspan></text></g><path d="M211.3,95.0C240.2,609.2 182.5,701.3 211.3,816.8" stroke="#000000" fill="none" style="stroke-width: 2;"></path><g class="actor"><path d="M442.6875,52.5C580.1,60.0 601.0,45.0 631.2,52.5C632.9,67.7 629.5,84.8 631.2,95.0C507.2,102.5 576.7,87.5 442.7,95.0C444.4,67.4 441.0,75.5 442.7,52.5" stroke="#000000" fill="#ffffff" style="stroke-width: 2;"></path><text x="452.6875" y="76.5" style="font-size: 16px; font-family: danielbd;"><tspan x="452.6875">YourCallbackServer</tspan></text></g><g class="actor"><path d="M442.6875,816.75C487.9,824.3 472.8,809.2 631.2,816.8C629.5,845.8 632.9,827.0 631.2,859.3C494.0,851.7 524.3,866.8 442.7,859.3C441.0,834.3 444.4,849.0 442.7,816.8" stroke="#000000" fill="#ffffff" style="stroke-width: 2;"></path><text x="452.6875" y="840.75" style="font-size: 16px; font-family: danielbd;"><tspan x="452.6875">YourCallbackServer</tspan></text></g><path d="M536.9,95.0C565.8,527.5 508.1,210.5 536.9,816.8" stroke="#000000" fill="none" style="stroke-width: 2;"></path><g class="actor"><path d="M767.7265625,52.5C890.7,46.5 793.8,58.5 918.3,52.5C920.0,60.0 916.6,76.8 918.3,95.0C814.3,101.0 829.1,89.0 767.7,95.0C766.0,62.7 769.4,59.3 767.7,52.5" stroke="#000000" fill="#ffffff" style="stroke-width: 2;"></path><text x="777.7265625" y="76.5" style="font-size: 16px; font-family: danielbd;"><tspan x="777.7265625">YourApplication</tspan></text></g><g class="actor"><path d="M767.7265625,816.75C882.2,822.8 864.0,810.7 918.3,816.8C916.6,828.6 920.0,823.5 918.3,859.3C882.2,853.2 894.2,865.3 767.7,859.3C766.0,832.2 769.4,841.5 767.7,816.8" stroke="#000000" fill="#ffffff" style="stroke-width: 2;"></path><text x="777.7265625" y="840.75" style="font-size: 16px; font-family: danielbd;"><tspan x="777.7265625">YourApplication</tspan></text></g><path d="M843.0,95.0C871.9,309.1 814.1,400.6 843.0,816.8" stroke="#000000" fill="none" style="stroke-width: 2;"></path><g class="note"><path d="M863.015625,115C987.1,105.9 1002.9,124.1 1089.4,115.0C1087.4,127.4 1091.5,135.5 1089.4,166.7C1001.4,175.7 1035.1,157.6 863.0,166.7C860.9,123.8 865.1,128.2 863.0,115.0" stroke="#000000" fill="#ffffff" style="stroke-width: 2;"></path><text x="868.015625" y="134" style="font-size: 16px; font-family: danielbd;"><tspan x="868.015625">Event: Identify event you</tspan><tspan dy="1.2em" x="868.015625">are interested in</tspan></text></g><g class="note"><path d="M863.015625,186.6875C1092.2,175.8 935.4,197.6 1135.8,186.7C1133.7,226.0 1137.9,230.1 1135.8,238.4C906.7,249.3 1026.0,227.5 863.0,238.4C865.1,228.6 860.9,201.7 863.0,186.7" stroke="#000000" fill="#ffffff" style="stroke-width: 2;"></path><text x="868.296875" y="205.6875" style="font-size: 16px; font-family: danielbd;"><tspan x="868.015625">Scope: Identify folder/project</tspan><tspan dy="1.2em" x="868.015625">that you want to monitor</tspan></text></g><g class="note"><path d="M556.9375,258.375C720.2,247.7 644.0,269.0 823.0,258.4C820.9,266.6 825.1,301.8 823.0,310.1C751.3,299.4 599.5,320.7 556.9,310.1C559.0,277.4 554.9,270.8 556.9,258.4" stroke="#000000" fill="#ffffff" style="stroke-width: 2;"></path><text x="562.21875" y="277.375" style="font-size: 16px; font-family: danielbd;"><tspan x="561.9375">Callback: Setup a callback url</tspan><tspan dy="1.2em" x="561.9375">that can receive events</tspan></text></g><g class="signal"><text x="463.171875" y="337.8125" style="font-size: 16px; font-family: danielbd;"><tspan x="463.171875">Create a Hook</tspan></text><path d="M843.0,352.6C362.9,327.3 691.4,377.8 211.3,352.6" stroke="#000000" fill="none" style="stroke-width: 2; marker-end: url(&quot;#markerArrowOpen&quot;);"></path></g><g class="signal"><text x="410.9296875" y="380.3125" style="font-size: 16px; font-family: danielbd;"><tspan x="410.9296875">Hooks created successfully</tspan></text><path d="M211.3,395.1C741.1,420.3 589.5,369.8 843.0,395.1" stroke="#000000" fill="none" style="stroke-width: 2; stroke-dasharray: 6, 2; marker-end: url(&quot;#markerArrowBlock&quot;);"></path></g><g class="signal"><text x="84.2578125" y="422.8125" style="font-size: 16px; font-family: danielbd;"><tspan x="84.2578125">File modified</tspan></text><path d="M67.3,437.6C101.9,431.8 153.6,443.3 211.3,437.6" stroke="#000000" fill="none" style="stroke-width: 2; stroke-dasharray: 6, 2; marker-end: url(&quot;#markerArrowOpen&quot;);"></path></g><g class="signal"><text x="260.9609375" y="465.3125" style="font-size: 16px; font-family: danielbd;"><tspan x="260.9609375">Event dm.version.modified</tspan></text><path d="M211.3,480.1C484.8,467.0 458.8,493.1 536.9,480.1" stroke="#000000" fill="none" style="stroke-width: 2; marker-end: url(&quot;#markerArrowOpen&quot;);"></path></g><g class="signal"><text x="221.328125" y="498.21875" style="font-size: 16px; font-family: danielbd;"><tspan x="221.328125">Returns 200 status code</tspan><tspan dy="1.2em" x="221.328125">within 6 seconds (acknowledgement)</tspan></text><path d="M536.9,541.8C399.5,554.8 389.3,528.7 211.3,541.8" stroke="#000000" fill="none" style="stroke-width: 2; stroke-dasharray: 6, 2; marker-end: url(&quot;#markerArrowBlock&quot;);"></path></g><g class="signal"><text x="91.3359375" y="569.5" style="font-size: 16px; font-family: danielbd;"><tspan x="91.3359375">File deleted</tspan></text><path d="M67.3,584.3C176.8,578.5 125.4,590.0 211.3,584.3" stroke="#000000" fill="none" style="stroke-width: 2; stroke-dasharray: 6, 2; marker-end: url(&quot;#markerArrowOpen&quot;);"></path></g><g class="signal"><text x="272.3671875" y="612" style="font-size: 16px; font-family: danielbd;"><tspan x="272.3671875">Even dm.version.deleted</tspan></text><path d="M211.3,626.8C360.4,613.7 289.5,639.8 536.9,626.8" stroke="#000000" fill="none" style="stroke-width: 2; marker-end: url(&quot;#markerArrowOpen&quot;);"></path></g><g class="signal"><text x="260.65625" y="654.5" style="font-size: 16px; font-family: danielbd;"><tspan x="260.65625">Returns 200 status code</tspan></text><path d="M536.9,669.3C340.2,656.2 452.6,682.3 211.3,669.3" stroke="#000000" fill="none" style="stroke-width: 2; stroke-dasharray: 6, 2; marker-end: url(&quot;#markerArrowBlock&quot;);"></path></g><g class="signal"><text x="77.28125" y="697" style="font-size: 16px; font-family: danielbd;"><tspan x="77.28125">Folder deleted</tspan></text><path d="M67.3,711.8C169.0,717.5 143.5,706.0 211.3,711.8" stroke="#000000" fill="none" style="stroke-width: 2; stroke-dasharray: 6, 2; marker-end: url(&quot;#markerArrowOpen&quot;);"></path></g><g class="signal"><text x="274.0546875" y="739.5" style="font-size: 16px; font-family: danielbd;"><tspan x="274.0546875">Even dm.folder.deleted</tspan></text><path d="M211.3,754.3C279.5,767.3 412.5,741.2 536.9,754.3" stroke="#000000" fill="none" style="stroke-width: 2; marker-end: url(&quot;#markerArrowOpen&quot;);"></path></g><g class="signal"><text x="260.65625" y="782" style="font-size: 16px; font-family: danielbd;"><tspan x="260.65625">Returns 200 status code</tspan></text><path d="M536.9,796.8C439.2,783.7 484.8,809.8 211.3,796.8" stroke="#000000" fill="none" style="stroke-width: 2; stroke-dasharray: 6, 2; marker-end: url(&quot;#markerArrowBlock&quot;);"></path></g></svg>